<svg xmlns="http://www.w3.org/2000/svg" xmlns:xlink="http://www.w3.org/1999/xlink" version="1.1" x="0px" y="0px" viewBox="0 0 100 125" enable-background="new 0 0 100 100" xml:space="preserve"><g><g><g><path d="M85.36,38H75c-0.552,0-1,0.448-1,1v9c0,0.552,0.448,1,1,1h16c0.552,0,1-0.448,1-1v-0.204c0-0.191-0.055-0.379-0.158-0.54     l-5.64-8.796C86.018,38.173,85.701,38,85.36,38z M76,47v-7h8.813l4.488,7H76z M46.375,55.563c-2.55,0-4.625,2.075-4.625,4.625     s2.075,4.625,4.625,4.625S51,62.738,51,60.188S48.925,55.563,46.375,55.563z M46.375,62.813c-1.447,0-2.625-1.178-2.625-2.625     s1.178-2.625,2.625-2.625S49,58.74,49,60.188S47.822,62.813,46.375,62.813z M80.375,55.563c-2.55,0-4.625,2.075-4.625,4.625     s2.075,4.625,4.625,4.625S85,62.738,85,60.188S82.925,55.563,80.375,55.563z M80.375,62.813c-1.447,0-2.625-1.178-2.625-2.625     s1.178-2.625,2.625-2.625S83,58.74,83,60.188S81.822,62.813,80.375,62.813z M24,43H4c-0.552,0-1,0.448-1,1s0.448,1,1,1h20     c0.552,0,1-0.448,1-1S24.552,43,24,43z M24,47H9c-0.552,0-1,0.448-1,1s0.448,1,1,1h15c0.552,0,1-0.448,1-1S24.552,47,24,47z      M24,39H14c-0.552,0-1,0.448-1,1s0.448,1,1,1h10c0.552,0,1-0.448,1-1S24.552,39,24,39z M69,29H28c-0.552,0-1,0.448-1,1v28     c0,0.552,0.448,1,1,1h11.042c-0.063,0.388-0.104,0.782-0.104,1.188c0,4.101,3.336,7.438,7.438,7.438s7.438-3.336,7.438-7.438     c0-0.405-0.042-0.8-0.104-1.188H69c0.552,0,1-0.448,1-1V30C70,29.448,69.552,29,69,29z M46.375,65.625     c-2.998,0-5.438-2.439-5.438-5.438s2.439-5.438,5.438-5.438s5.438,2.439,5.438,5.438S49.373,65.625,46.375,65.625z M68,57H53.084     c-1.196-2.508-3.75-4.25-6.709-4.25s-5.513,1.742-6.709,4.25H29V31h39V57z M94.842,46.377l-7-10.917     C87.658,35.173,87.341,35,87,35H72c-0.552,0-1,0.448-1,1v22c0,0.552,0.448,1,1,1h1.042c-0.063,0.388-0.104,0.782-0.104,1.188     c0,4.101,3.336,7.438,7.438,7.438s7.438-3.336,7.438-7.438c0-0.405-0.042-0.8-0.104-1.188H94c0.552,0,1-0.448,1-1V46.917     C95,46.726,94.945,46.538,94.842,46.377z M80.375,65.625c-2.998,0-5.438-2.439-5.438-5.438s2.439-5.438,5.438-5.438     s5.438,2.439,5.438,5.438S83.373,65.625,80.375,65.625z M93,57h-5.916c-1.196-2.508-3.75-4.25-6.709-4.25     s-5.513,1.742-6.709,4.25H73V37h13.453L93,47.21V57z"/></g></g></g><text x="0" y="115" fill="#000000" font-size="5px" font-weight="bold" font-family="'Helvetica Neue', Helvetica, Arial-Unicode, Arial, Sans-serif">Created by Hyhyhehe</text><text x="0" y="120" fill="#000000" font-size="5px" font-weight="bold" font-family="'Helvetica Neue', Helvetica, Arial-Unicode, Arial, Sans-serif">from the Noun Project</text></svg>