<svg xmlns="http://www.w3.org/2000/svg" xmlns:xlink="http://www.w3.org/1999/xlink" version="1.1" x="0px" y="0px" viewBox="0 0 1000 1250" enable-background="new 0 0 1000 1000" xml:space="preserve"><g><path d="M819.9,261.4H180c-24.4,0-44.3,19.9-44.3,44.3v387.9c0,24.4,19.9,44.3,44.3,44.3h639.9c24.4,0,44.3-19.9,44.3-44.3V305.7   C864.2,281.3,844.3,261.4,819.9,261.4z M849.8,693.6c0,16.5-13.4,29.9-29.9,29.9H180c-16.5,0-29.9-13.4-29.9-29.9V305.7   c0-16.5,13.4-29.9,29.9-29.9h639.9c16.5,0,29.9,13.4,29.9,29.9V693.6z"/><path d="M311.3,387h-76c-15.1,0-27.4,12.3-27.4,27.4v52c0,15.1,12.3,27.4,27.4,27.4h76c15.1,0,27.4-12.3,27.4-27.4v-52   C338.7,399.3,326.4,387,311.3,387z M324.3,466.4c0,7.2-5.8,13-13,13h-76c-7.2,0-13-5.8-13-13v-52c0-7.2,5.8-13,13-13h76   c7.2,0,13,5.8,13,13V466.4z"/><path d="M224.3,529.3c-4,0-7.2,3.2-7.2,7.2v29.7c0,4,3.2,7.2,7.2,7.2c4,0,7.2-3.2,7.2-7.2v-29.7   C231.5,532.6,228.3,529.3,224.3,529.3z"/><path d="M253.9,529.3c-4,0-7.2,3.2-7.2,7.2v29.7c0,4,3.2,7.2,7.2,7.2c4,0,7.2-3.2,7.2-7.2v-29.7   C261.1,532.6,257.9,529.3,253.9,529.3z"/><path d="M283.6,529.3c-4,0-7.2,3.2-7.2,7.2v29.7c0,4,3.2,7.2,7.2,7.2c4,0,7.2-3.2,7.2-7.2v-29.7   C290.8,532.6,287.5,529.3,283.6,529.3z"/><path d="M313.2,529.3c-4,0-7.2,3.2-7.2,7.2v29.7c0,4,3.2,7.2,7.2,7.2c4,0,7.2-3.2,7.2-7.2v-29.7   C320.4,532.6,317.2,529.3,313.2,529.3z"/><path d="M371.8,529.3c-4,0-7.2,3.2-7.2,7.2v29.7c0,4,3.2,7.2,7.2,7.2c4,0,7.2-3.2,7.2-7.2v-29.7C379,532.6,375.8,529.3,371.8,529.3   z"/><path d="M401.4,529.3c-4,0-7.2,3.2-7.2,7.2v29.7c0,4,3.2,7.2,7.2,7.2c4,0,7.2-3.2,7.2-7.2v-29.7   C408.6,532.6,405.4,529.3,401.4,529.3z"/><path d="M431,529.3c-4,0-7.2,3.2-7.2,7.2v29.7c0,4,3.2,7.2,7.2,7.2c4,0,7.2-3.2,7.2-7.2v-29.7C438.2,532.6,435,529.3,431,529.3z"/><path d="M460.7,529.3c-4,0-7.2,3.2-7.2,7.2v29.7c0,4,3.2,7.2,7.2,7.2c4,0,7.2-3.2,7.2-7.2v-29.7   C467.9,532.6,464.6,529.3,460.7,529.3z"/><path d="M520.1,529.3c-4,0-7.2,3.2-7.2,7.2v29.7c0,4,3.2,7.2,7.2,7.2c4,0,7.2-3.2,7.2-7.2v-29.7   C527.3,532.6,524.1,529.3,520.1,529.3z"/><path d="M549.8,529.3c-4,0-7.2,3.2-7.2,7.2v29.7c0,4,3.2,7.2,7.2,7.2c4,0,7.2-3.2,7.2-7.2v-29.7C557,532.6,553.7,529.3,549.8,529.3   z"/><path d="M579.4,529.3c-4,0-7.2,3.2-7.2,7.2v29.7c0,4,3.2,7.2,7.2,7.2c4,0,7.2-3.2,7.2-7.2v-29.7   C586.6,532.6,583.4,529.3,579.4,529.3z"/><path d="M609,529.3c-4,0-7.2,3.2-7.2,7.2v29.7c0,4,3.2,7.2,7.2,7.2c4,0,7.2-3.2,7.2-7.2v-29.7C616.2,532.6,613,529.3,609,529.3z"/><path d="M664.6,536.5v29.7c0,4,3.2,7.2,7.2,7.2c4,0,7.2-3.2,7.2-7.2v-29.7c0-4-3.2-7.2-7.2-7.2   C667.8,529.3,664.6,532.6,664.6,536.5z"/><path d="M694.2,536.5v29.7c0,4,3.2,7.2,7.2,7.2c4,0,7.2-3.2,7.2-7.2v-29.7c0-4-3.2-7.2-7.2-7.2   C697.5,529.3,694.2,532.6,694.2,536.5z"/><path d="M723.9,536.5v29.7c0,4,3.2,7.2,7.2,7.2c4,0,7.2-3.2,7.2-7.2v-29.7c0-4-3.2-7.2-7.2-7.2   C727.1,529.3,723.9,532.6,723.9,536.5z"/><path d="M753.5,536.5v29.7c0,4,3.2,7.2,7.2,7.2c4,0,7.2-3.2,7.2-7.2v-29.7c0-4-3.2-7.2-7.2-7.2   C756.7,529.3,753.5,532.6,753.5,536.5z"/><path d="M453,593.2c-4,0-7.2,3.2-7.2,7.2V625c0,4,3.2,7.2,7.2,7.2c4,0,7.2-3.2,7.2-7.2v-24.6C460.2,596.5,457,593.2,453,593.2z"/><path d="M422.6,593.2c-4,0-7.2,3.2-7.2,7.2V625c0,4,3.2,7.2,7.2,7.2c4,0,7.2-3.2,7.2-7.2v-24.6   C429.8,596.5,426.5,593.2,422.6,593.2z"/><path d="M495.4,593.5c-3.4-2.1-7.8-1.1-9.9,2.3L469.2,622c-2.1,3.4-1.1,7.8,2.3,9.9c1.2,0.7,2.5,1.1,3.8,1.1c2.4,0,4.7-1.2,6.1-3.4   l16.3-26.2C499.8,600.1,498.8,595.6,495.4,593.5z"/><path d="M513.9,593.2c-4,0-7.2,3.2-7.2,7.2V625c0,4,3.2,7.2,7.2,7.2c4,0,7.2-3.2,7.2-7.2v-24.6   C521.1,596.5,517.9,593.2,513.9,593.2z"/><path d="M544.4,593.2c-4,0-7.2,3.2-7.2,7.2V625c0,4,3.2,7.2,7.2,7.2c4,0,7.2-3.2,7.2-7.2v-24.6   C551.6,596.5,548.3,593.2,544.4,593.2z"/><path d="M475.3,350.7H782c4,0,7.2-3.2,7.2-7.2s-3.2-7.2-7.2-7.2H475.3c-4,0-7.2,3.2-7.2,7.2S471.4,350.7,475.3,350.7z"/><path d="M755.7,616.2c-10,0-19.5,3.5-27.1,9.8c-7.4-6.1-16.9-9.8-27.2-9.8c-23.5,0-42.7,19.2-42.7,42.7s19.2,42.7,42.7,42.7   c10.3,0,19.8-3.7,27.2-9.8c7.6,6.3,17.1,9.8,27.1,9.8c23.5,0,42.7-19.2,42.7-42.7S779.2,616.2,755.7,616.2z M673.1,658.9   c0-15.6,12.7-28.3,28.3-28.3c15.6,0,28.3,12.7,28.3,28.3s-12.7,28.3-28.3,28.3C685.8,687.2,673.1,674.5,673.1,658.9z M755.7,687.2   c-6.5,0-12.7-2.3-17.7-6.3c3.9-6.4,6.2-14,6.2-22s-2.3-15.6-6.2-22c5-4,11.2-6.3,17.7-6.3c15.6,0,28.3,12.7,28.3,28.3   S771.3,687.2,755.7,687.2z"/></g><text x="0" y="1015" fill="#000000" font-size="5px" font-weight="bold" font-family="'Helvetica Neue', Helvetica, Arial-Unicode, Arial, Sans-serif">Created by Alvaro Cabrera</text><text x="0" y="1020" fill="#000000" font-size="5px" font-weight="bold" font-family="'Helvetica Neue', Helvetica, Arial-Unicode, Arial, Sans-serif">from the Noun Project</text></svg>