<svg xmlns="http://www.w3.org/2000/svg" xmlns:xlink="http://www.w3.org/1999/xlink" viewBox="0 0 28 51.25" version="1.1" x="0px" y="0px"><title>Combined Shape</title><desc>Created with Sketch.</desc><g stroke="none" stroke-width="1" fill="none" fill-rule="evenodd"><path d="M14.35,0.75 C21.8610726,0.75 27.95,6.8389274 27.95,14.35 C27.95,16.6533844 27.3756641,18.8761425 26.2962935,20.8545955 C26.2773212,20.8996583 26.2554482,20.9443515 26.2305675,20.9884928 L15.4389293,40.1341471 C14.9609234,40.9821866 13.7398156,40.9824953 13.2613811,40.1346975 L2.45698659,20.9890432 C2.41730656,20.9187292 2.38526176,20.8470085 2.36042082,20.7746191 C1.30898757,18.8163255 0.75,16.6223986 0.75,14.35 C0.75,6.8389274 6.8389274,0.75 14.35,0.75 Z M14.35,3.25 C8.21963928,3.25 3.25,8.21963928 3.25,14.35 C3.25,16.2738348 3.73896239,18.1237857 4.65735816,19.7640508 C4.69318432,19.8280367 4.72270764,19.8931666 4.7462526,19.9588877 L14.3493569,36.975826 L23.983205,19.8842295 C24.0006468,19.8438189 24.0204333,19.8037154 24.0426418,19.7640508 C24.9610376,18.1237857 25.45,16.2738348 25.45,14.35 C25.45,8.21963928 20.4803607,3.25 14.35,3.25 Z M14.35,8.35 C17.6637085,8.35 20.35,11.0362915 20.35,14.35 C20.35,17.6637085 17.6637085,20.35 14.35,20.35 C11.0362915,20.35 8.35,17.6637085 8.35,14.35 C8.35,11.0362915 11.0362915,8.35 14.35,8.35 Z M14.35,10.85 C12.4170034,10.85 10.85,12.4170034 10.85,14.35 C10.85,16.2829966 12.4170034,17.85 14.35,17.85 C16.2829966,17.85 17.85,16.2829966 17.85,14.35 C17.85,12.4170034 16.2829966,10.85 14.35,10.85 Z" fill="#000000" fill-rule="nonzero"/></g><text x="0" y="56" fill="#000000" font-size="5px" font-weight="bold" font-family="'Helvetica Neue', Helvetica, Arial-Unicode, Arial, Sans-serif">Created by Adrien Duchateau</text><text x="0" y="61" fill="#000000" font-size="5px" font-weight="bold" font-family="'Helvetica Neue', Helvetica, Arial-Unicode, Arial, Sans-serif">from the Noun Project</text></svg>